<svg width="96" height="90" viewBox="0 0 96 90" fill="none" xmlns="http://www.w3.org/2000/svg">
<path d="M78.2481 53.2426C71.9048 53.2486 65.6937 55.0569 60.3385 58.4567C54.9832 61.8566 50.7042 66.7081 48 72.4461C45.2957 66.7081 41.0167 61.8566 35.6614 58.4567C30.3062 55.0569 24.0951 53.2486 17.7518 53.2426H0.239746V56.4266C0.239746 74.8612 15.2372 89.8587 33.6719 89.8587H62.328C80.7627 89.8587 95.7602 74.8612 95.7602 56.4266V53.2426H78.2481ZM33.6719 83.4907C19.8252 83.4907 8.37411 73.0394 6.79404 59.6106H17.7518C31.5985 59.6106 43.0496 70.0619 44.6297 83.4907H33.6719ZM62.328 83.4907H51.3702C52.9503 70.0619 64.4014 59.6106 78.2481 59.6106H89.2059C87.6258 73.0394 76.1747 83.4907 62.328 83.4907Z" fill="black"/>
<path d="M30.732 45.0383C31.3342 48.619 33.0424 51.9212 35.6169 54.4815L36.5496 55.4141H37.8684C41.4993 55.4242 45.0422 54.2971 47.9999 52.191C50.9576 54.2974 54.5005 55.4247 58.1315 55.4148H59.4502L60.383 54.4823C62.9574 51.922 64.6656 48.6198 65.2678 45.0391C68.8485 44.4369 72.1507 42.7287 74.711 40.1543L75.6435 39.2215V37.9028C75.6538 34.2716 74.5268 30.7284 72.4205 27.7704C74.5269 24.8128 75.6542 21.2699 75.6443 17.6389V16.3201L74.7118 15.3874C72.1514 12.8129 68.8492 11.1047 65.2686 10.5025C64.6664 6.92193 62.9582 3.61973 60.3838 1.05935L59.451 0.126837H58.1323C54.5011 0.116581 50.9579 1.24366 47.9999 3.34986C45.0423 1.24351 41.4994 0.116157 37.8684 0.126041H36.5496L35.6169 1.05856C33.0424 3.61894 31.3342 6.92114 30.732 10.5017C27.1514 11.104 23.8492 12.8121 21.2888 15.3866L20.3563 16.3193V17.6381C20.3461 21.2693 21.4731 24.8125 23.5793 27.7704C21.473 30.7281 20.3456 34.271 20.3555 37.902V39.2208L21.2881 40.1535C23.8486 42.7281 27.1511 44.4363 30.732 45.0383ZM29.9886 25.5191C28.2227 23.7639 27.1008 21.4641 26.8046 18.9919C28.762 17.4527 31.1817 16.6192 33.6719 16.6264H36.8559V13.4424C36.8487 10.9525 37.682 8.53307 39.2208 6.57566C41.693 6.87193 43.9928 7.99379 45.748 9.75967L47.9999 12.0096L50.2512 9.75828C52.0065 7.99241 54.3063 6.87055 56.7785 6.57427C58.3178 8.53198 59.1513 10.952 59.144 13.4424V16.6264H62.328C64.8179 16.6192 67.2373 17.4525 69.1947 18.9913C68.8984 21.4635 67.7766 23.7633 66.0107 25.5186L63.7608 27.7704L66.0123 30.0219C67.7782 31.7772 68.9001 34.077 69.1963 36.5492C67.2385 38.0885 64.8185 38.9219 62.328 38.9145H59.144V42.0985C59.1512 44.5884 58.3179 47.0078 56.7791 48.9652C54.3069 48.669 52.0071 47.5471 50.2518 45.7812L47.9999 43.5313L45.7484 45.782C43.9932 47.5479 41.6934 48.6698 39.2212 48.966C37.6821 47.0085 36.8486 44.5887 36.8559 42.0985V38.9145H33.6719C31.182 38.9217 28.7626 38.0884 26.8052 36.5496C27.1014 34.0774 28.2233 31.7776 29.9892 30.0223L32.2391 27.7704L29.9886 25.5191Z" fill="black"/>
</svg>
