<svg width="102" height="103" viewBox="0 0 102 103" fill="none" xmlns="http://www.w3.org/2000/svg">
<path d="M89.4 51.126V96.246C89.4 97.8367 88.1107 99.126 86.52 99.126H15.48C13.8894 99.126 12.6 97.8367 12.6 96.246V51.126" stroke="black" stroke-width="6" stroke-linecap="round" stroke-linejoin="round"/>
<path d="M96.12 27.126H5.88C4.28942 27.126 3 28.4154 3 30.006V48.246C3 49.8367 4.28942 51.126 5.88 51.126H96.12C97.7107 51.126 99 49.8367 99 48.246V30.006C99 28.4154 97.7107 27.126 96.12 27.126Z" stroke="black" stroke-width="6" stroke-linecap="round" stroke-linejoin="round"/>
<path d="M51 99.126V27.126" stroke="black" stroke-width="6" stroke-linecap="round" stroke-linejoin="round"/>
<path d="M51 27.126H29.4C26.2174 27.126 23.1652 25.8617 20.9147 23.6113C18.6643 21.3608 17.4 18.3086 17.4 15.126C17.4 11.9434 18.6643 8.89111 20.9147 6.64068C23.1652 4.39025 26.2174 3.12598 29.4 3.12598C46.2 3.12598 51 27.126 51 27.126Z" stroke="black" stroke-width="6" stroke-linecap="round" stroke-linejoin="round"/>
<path d="M51 27.126H72.6C75.7824 27.126 78.8347 25.8617 81.0854 23.6113C83.3357 21.3608 84.6 18.3086 84.6 15.126C84.6 11.9434 83.3357 8.89111 81.0854 6.64068C78.8347 4.39025 75.7824 3.12598 72.6 3.12598C55.8 3.12598 51 27.126 51 27.126Z" stroke="black" stroke-width="6" stroke-linecap="round" stroke-linejoin="round"/>
</svg>
