<svg width="96" height="97" viewBox="0 0 96 97" fill="none" xmlns="http://www.w3.org/2000/svg">
<g clip-path="url(#clip0_14_1067)">
<path d="M62.2 52.126C65.2 52.126 67.84 50.486 69.2 48.006L83.52 22.046C85 19.406 83.08 16.126 80.04 16.126H20.84L17.08 8.12598H4V16.126H12L26.4 46.486L21 56.246C18.08 61.606 21.92 68.126 28 68.126H76V60.126H28L32.4 52.126H62.2ZM24.64 24.126H73.24L62.2 44.126H34.12L24.64 24.126ZM28 72.126C23.6 72.126 20.04 75.726 20.04 80.126C20.04 84.526 23.6 88.126 28 88.126C32.4 88.126 36 84.526 36 80.126C36 75.726 32.4 72.126 28 72.126ZM68 72.126C63.6 72.126 60.04 75.726 60.04 80.126C60.04 84.526 63.6 88.126 68 88.126C72.4 88.126 76 84.526 76 80.126C76 75.726 72.4 72.126 68 72.126Z" fill="black"/>
</g>
<defs>
<clipPath id="clip0_14_1067">
<rect width="96" height="96" fill="white" transform="translate(0 0.125977)"/>
</clipPath>
</defs>
</svg>
